<svg xmlns="http://www.w3.org/2000/svg" viewBox="0 0 309.33 160.69"><defs><style>.cls-1{fill:#ff7373;}.cls-2{fill:#313131;}.cls-3{fill:#fcffe3;}.cls-4{fill:#f2f2f2;}</style></defs><title>gangetabellen</title><g id="arms"><path class="cls-1" d="M235.4,84.53a3,3,0,0,1-.65-6c.4-.09,39.76-9.06,63.28-40.39a3,3,0,0,1,4.81,3.61C278,75,237.74,84.08,236,84.45A2.8,2.8,0,0,1,235.4,84.53Z"/><path class="cls-1" d="M65.39,88.4C55,88.4,23.66,86.16,3.68,60.54a3,3,0,1,1,4.74-3.69C30.11,84.66,68,82.34,68.36,82.3a3,3,0,0,1,.43,6C68.53,88.32,67.32,88.4,65.39,88.4Z"/></g><g id="legs"><path class="cls-1" d="M94,153.41a3,3,0,0,1-3-3V119.72a3,3,0,1,1,6,0V150.4A3,3,0,0,1,94,153.41Z"/><path class="cls-1" d="M206.15,152.2a3,3,0,0,1-3-3V120.92a3,3,0,0,1,6,0V149.2A3,3,0,0,1,206.15,152.2Z"/></g><g id="main"><path class="cls-1" d="M202.93,125.6c18.48-.08,36.95-2.18,50.64-16,17.44-17.6,16.67-44.56.94-62.94C243.62,34,226.32,28.23,210.85,23.27c-30.75-9.84-110.12-4-135,9.75C52.58,45.85,40.92,62.59,40.13,89.61c-.46,15.86,21.67,34.17,38.5,35.09,31.25,1.71,46.82,1.2,77.57,1.08Q179.57,125.69,202.93,125.6Zm9.42-60h0C212.4,65.62,212.39,65.63,212.35,65.62Z"/><path class="cls-2" d="M190.15,79.37c-2.41-1.05-5.49-.9-10.11-1-18.92-.6-36.3-1-55.22-1.51-2.87-.07-4.58,2.39-5.13,4.67-2.48,20.9,26.72,20.71,48.43,20.08,3-.28,6-.66,8.93-1.09,5.29-.77,11.13-2,14.73-6.31C194.32,91.12,194.11,81.09,190.15,79.37Z"/><path class="cls-3" d="M156.71,78.55a2,2,0,0,0-.42-.76,17.92,17.92,0,0,0-4.91-.16,1.79,1.79,0,0,0-.74,1.48v0h0c0,.68,0,1.37,0,2a4.33,4.33,0,0,0,.13,1.48c.51,1.5,1.88,1.59,3.22,1.58a4.21,4.21,0,0,0,1.54-.18,2.16,2.16,0,0,0,1.28-2c0-.44,0-.91,0-1.35A7.63,7.63,0,0,0,156.71,78.55Zm-2.38,3.16c0,.11,0,.15,0,0Z"/><path class="cls-3" d="M138,77.92a1.51,1.51,0,0,0-.32-.58,13.51,13.51,0,0,0-3.76-.12,1.37,1.37,0,0,0-.57,1.13v0h0c0,.53,0,1,0,1.57a3.29,3.29,0,0,0,.1,1.13c.39,1.16,1.44,1.22,2.46,1.21a3.13,3.13,0,0,0,1.18-.13,1.64,1.64,0,0,0,1-1.52c0-.34,0-.69,0-1A5.88,5.88,0,0,0,138,77.92Zm-1.82,2.42c0,.08,0,.12,0,0Z"/><path class="cls-3" d="M181.79,79.1a1.53,1.53,0,0,0-.33-.58,13.5,13.5,0,0,0-3.76-.12,1.4,1.4,0,0,0-.57,1.13v0h0c0,.52,0,1,0,1.57a3.31,3.31,0,0,0,.1,1.13c.39,1.15,1.44,1.22,2.47,1.21a3.29,3.29,0,0,0,1.17-.13,1.65,1.65,0,0,0,1-1.52c0-.34,0-.7,0-1A5.83,5.83,0,0,0,181.79,79.1ZM180,81.52c0,.08,0,.11,0,0Z"/><path class="cls-3" d="M126.47,77.52a1.68,1.68,0,0,0-.35-.64,6.24,6.24,0,0,0-3,.19,4.68,4.68,0,0,0-1.74,1.2c0,.38,0,1.1,0,1.45A3.66,3.66,0,0,0,121.5,81c.42,1.26,1.56,1.33,2.69,1.32a3.46,3.46,0,0,0,1.28-.14,1.82,1.82,0,0,0,1.08-1.66c0-.37,0-.76,0-1.13A7,7,0,0,0,126.47,77.52Zm-2,2.64c0,.09,0,.13,0,0Z"/><path class="cls-3" d="M176.36,79.34a1.88,1.88,0,0,0-1.29-1.3s-1.58-.06-2.47,0l-.63.07a1.74,1.74,0,0,0-1.69,1.78v0h0c0,.68,0,1.36,0,2a4.33,4.33,0,0,0,.13,1.48c.51,1.51,1.87,1.59,3.22,1.58a4.15,4.15,0,0,0,1.53-.17,2.17,2.17,0,0,0,1.29-2c0-.44,0-.9,0-1.35A7.93,7.93,0,0,0,176.36,79.34ZM174,82.5c0,.1,0,.15,0,0Z"/><path class="cls-3" d="M163.24,79.13c-.1-.63-.17-1.33-.78-1.34l-3.7-.1c-1,0-1.3.91-1.3,1.92v0c0,.68,0,1.36,0,2,0,.5.09,1,.13,1.49a1.45,1.45,0,0,0,1,1.36,17,17,0,0,0,3.94-.14c.53-.27.72-.87.79-1.73,0-.44,0-.91,0-1.35A14.43,14.43,0,0,0,163.24,79.13Zm-2.39,3.16c0,.1,0,.14,0,0Z"/><path class="cls-3" d="M189.24,79c0,.48,0,1.28,0,1.68s.09,1,.13,1.48a1.43,1.43,0,0,0,1,1.36,13.67,13.67,0,0,0,2.58,0C192,79.46,189.68,79.16,189.24,79Z"/><path class="cls-3" d="M150,79.06c-.16-.72-.32-1.43-.9-1.6l-3.17-.06c-.92,0-1.22,1-1.23,2.24v0c0,.83,0,1.65,0,2.48,0,.59.08,1.19.12,1.79s.33,1.46.93,1.64a11.71,11.71,0,0,0,3.61-.16c.48-.33.66-1.06.72-2.09,0-.54,0-1.1,0-1.64A12.21,12.21,0,0,0,150,79.06Zm-2.19,3.82c0,.13,0,.18,0,0Z"/><path class="cls-3" d="M169.52,79.1c-.16-.72-.3-1.08-.6-1.13l-2,0-1.52,0c-.92,0-1.12.59-1.12,1.8v0c0,.83,0,1.65,0,2.48,0,.59.09,1.18.12,1.79s.33,1.46.94,1.64a11.45,11.45,0,0,0,3.61-.17c.47-.32.65-1,.71-2.08,0-.54,0-1.1.05-1.64A12.18,12.18,0,0,0,169.52,79.1Zm-2.18,3.82c0,.13,0,.18,0,0Z"/><path class="cls-3" d="M132.36,78.29c-.15-.84-.29-1.26-.59-1.3l-2-.07-1.49,0c-.9,0-1.09.68-1.09,2.08V79c0,.95,0,1.91,0,2.86,0,.69.08,1.37.12,2.07s.32,1.69.91,1.9a9.69,9.69,0,0,0,3.52-.19c.47-.38.64-1.22.7-2.42,0-.62,0-1.27,0-1.89A17.15,17.15,0,0,0,132.36,78.29Zm-2.13,4.42c0,.14,0,.21,0,0Z"/><path class="cls-3" d="M143.77,78.71c-.16-.72-.19-1.3-.76-1.47l-1.95,0-1.15,0c-.93,0-1.43.94-1.43,2.15v0c0,.82,0,1.65,0,2.47,0,.6.09,1.19.12,1.79s.33,1.47.94,1.65a7.25,7.25,0,0,0,3.49-.61c.74-.5.79-1,.85-2,0-.54,0-.71,0-1.24A12.18,12.18,0,0,0,143.77,78.71Zm-2.18,3.82c0,.13,0,.18,0,0Z"/><path class="cls-3" d="M188.14,80c-.16-.73-.27-1.21-.85-1.38l-1.74-.14-1.28,0c-.92,0-1.42.93-1.43,2.15v0c0,.82,0,1.65,0,2.47,0,.6.08,1.19.12,1.79s.32,1.47.93,1.65a7.27,7.27,0,0,0,3.5-.61c.74-.5.78-1,.85-2,0-.53,0-.7,0-1.23A12.18,12.18,0,0,0,188.14,80ZM186,83.82c0,.12,0,.18,0,0Z"/><path class="cls-4" d="M161.62,48.76a5.82,5.82,0,0,0-5.52-1.71A2.91,2.91,0,0,0,154,49.46c-.91,2.1-1.13,4.86,1.19,6.13,1.93,1.06,4.86,1.06,6.54-.45C163.64,53.39,163.18,50.59,161.62,48.76Z"/><path class="cls-2" d="M159,50.49a2.58,2.58,0,0,0-1.06-.29,1,1,0,0,0-.7.29l-.08.1a1.74,1.74,0,0,0-.58,1.55,1.55,1.55,0,0,0,1.68,1.13,1.29,1.29,0,0,0,1.1-.64,2,2,0,0,0,.26-1A1.34,1.34,0,0,0,159,50.49Z"/><path class="cls-4" d="M147.39,48.76a5.82,5.82,0,0,0-5.52-1.71,2.93,2.93,0,0,0-2.16,2.41c-.9,2.1-1.12,4.86,1.2,6.13,1.92,1.06,4.86,1.06,6.54-.45C149.4,53.39,149,50.59,147.39,48.76Z"/><path class="cls-2" d="M144.88,50.31a2.62,2.62,0,0,0-1.14-.31,1.05,1.05,0,0,0-.74.31l-.09.11a1.86,1.86,0,0,0-.61,1.64,1.66,1.66,0,0,0,1.79,1.21,1.37,1.37,0,0,0,1.17-.68,2.29,2.29,0,0,0,.28-1.08A1.42,1.42,0,0,0,144.88,50.31Z"/><path class="cls-4" d="M175.65,48.76a5.81,5.81,0,0,0-5.51-1.71A2.93,2.93,0,0,0,168,49.46c-.9,2.1-1.13,4.86,1.19,6.13,1.93,1.06,4.86,1.06,6.54-.45C177.67,53.39,177.22,50.59,175.65,48.76Z"/><path class="cls-2" d="M172.81,50.31a2.62,2.62,0,0,0-1.13-.31,1.06,1.06,0,0,0-.75.31.44.44,0,0,0-.08.11,1.81,1.81,0,0,0-.61,1.64A1.65,1.65,0,0,0,172,53.27a1.37,1.37,0,0,0,1.16-.68,2.18,2.18,0,0,0,.28-1.08A1.42,1.42,0,0,0,172.81,50.31Z"/></g><g id="eyelids"><path class="cls-1" d="M147.58,31.52a10.43,10.43,0,0,0-4.34-1.16,4,4,0,0,0-2.84,1.18,2.69,2.69,0,0,0-.33.41,7,7,0,0,0-2.33,6.26c.57,3.14,3.88,4.8,6.83,4.63A5.21,5.21,0,0,0,149,40.22a8.36,8.36,0,0,0,1.07-4.12A5.43,5.43,0,0,0,147.58,31.52Z"/><path class="cls-1" d="M161.75,31.62a10.39,10.39,0,0,0-4.34-1.16,4,4,0,0,0-2.83,1.18,3.53,3.53,0,0,0-.34.41,6.93,6.93,0,0,0-2.32,6.26c.57,3.14,3.87,4.8,6.83,4.63a5.19,5.19,0,0,0,4.43-2.62,8.26,8.26,0,0,0,1.08-4.12A5.44,5.44,0,0,0,161.75,31.62Z"/><path class="cls-1" d="M175.89,31.52a10.43,10.43,0,0,0-4.34-1.16,4,4,0,0,0-2.84,1.18,2.69,2.69,0,0,0-.33.41,7,7,0,0,0-2.33,6.26c.57,3.14,3.88,4.8,6.83,4.63a5.21,5.21,0,0,0,4.44-2.62,8.36,8.36,0,0,0,1.07-4.12A5.43,5.43,0,0,0,175.89,31.52Z"/></g></svg>