<svg xmlns="http://www.w3.org/2000/svg" viewBox="0 0 194.18 206.37"><defs><style>.cls-1{fill:#666f9a;}.cls-2{fill:#313131;}.cls-3{fill:#fcffe3;}.cls-4{fill:#f2f2f2;}.cls-5{fill:#ff7373;}</style></defs><title>gangetabellen</title><g id="arms"><path class="cls-1" d="M16.91,164.58a3.46,3.46,0,0,1-3.41-2.89C5.74,114.67,30.11,74,31.15,72.33a3.46,3.46,0,0,1,5.91,3.6c-.24.39-24.07,40.21-16.74,84.63a3.46,3.46,0,0,1-2.84,4A3.64,3.64,0,0,1,16.91,164.58Z"/><path class="cls-1" d="M177.39,164.73a4.46,4.46,0,0,1-.63,0,3.46,3.46,0,0,1-2.77-4c8.13-44.37-15-84.51-15.24-84.91a3.46,3.46,0,1,1,6-3.5c1,1.72,24.66,42.78,16.07,89.66A3.46,3.46,0,0,1,177.39,164.73Z"/></g><g id="legs"><path class="cls-1" d="M85.64,196a3.45,3.45,0,0,1-3.46-3.45V162.84a3.46,3.46,0,0,1,6.92,0v29.73A3.45,3.45,0,0,1,85.64,196Z"/><path class="cls-1" d="M104.59,196a3.45,3.45,0,0,1-3.46-3.45v-32.5a3.46,3.46,0,0,1,6.91,0v32.5A3.44,3.44,0,0,1,104.59,196Z"/></g><g id="main"><path class="cls-1" d="M185.37,67.86c-8.51-32.19-43.91-55.2-75.27-60.78-36-6.41-79.57,6.8-95.78,42.38a59.46,59.46,0,0,0-4.24,13,62.93,62.93,0,0,0-5.7,25.75,52.44,52.44,0,0,0,11.37,32.6,19.88,19.88,0,0,0,4,11c1.44,1.86,2.94,3.69,4.48,5.48l-.16.12,1.26,1.14c19.45,22,46.57,37.23,77,34.9,34.08-2.6,71.1-24.4,75.11-61.13A53.07,53.07,0,0,0,185.37,67.86Z"/><path class="cls-2" d="M116,88.5c-.6-1.32-1.39-3.47-3.86-3.3-4.3.29-8.62,0-12.93,0l-6.46,0a18.5,18.5,0,0,0-5.84.49c-7.4,2.43-7.3,12.9-6.26,19.09.55,3.26,2.63,6.23,4.91,8.6a14.84,14.84,0,0,0,7.78,3.9,17.83,17.83,0,0,0,17.18-5.59c2.66-2.87,4.91-5.73,5.57-9.66a39.53,39.53,0,0,0,.86-6.4C116.89,93.19,116.92,90.67,116,88.5Z"/><path class="cls-3" d="M94.9,87a2.64,2.64,0,0,0-1.85-1.85s-2.25-.09-3.53,0l-.9.1a2.5,2.5,0,0,0-2.41,2.55v0h0c0,1,0,2,0,2.93a6.32,6.32,0,0,0,.19,2.12c.73,2.15,2.68,2.27,4.61,2.26a6.21,6.21,0,0,0,2.19-.25A3.1,3.1,0,0,0,95,92.08c0-.64.06-1.3.07-1.94A11.21,11.21,0,0,0,94.9,87Zm-3.41,4.52c0,.15,0,.21,0,0Z"/><path class="cls-3" d="M111.81,87.12c-.25-.85-.39-1.64-1.29-1.84l-3,0-1.8,0a2.25,2.25,0,0,0-2.23,2.54v0c0,1,0,2,0,2.92,0,.71.13,1.41.19,2.12a2.06,2.06,0,0,0,1.46,1.95,24.12,24.12,0,0,0,5.63-.2c.75-.39,1-1.25,1.13-2.47,0-.63.06-1.3.07-1.93A11.29,11.29,0,0,0,111.81,87.12Zm-3.41,4.52c0,.15,0,.22,0,0Z"/><path class="cls-4" d="M129.53,43c-2.4-1.55-5.61-1.87-8.35-2.22-1.81-.23-4.22,1-5.44,2.26a6.36,6.36,0,0,0-.65.79,13.37,13.37,0,0,0-4.47,12c1.1,6,7.45,9.22,13.13,8.89a10,10,0,0,0,8.53-5,15.92,15.92,0,0,0,2.06-7.92A10.46,10.46,0,0,0,129.53,43Z"/><path class="cls-2" d="M125.51,49.05a4.52,4.52,0,0,0-2.82-1.15,3,3,0,0,0-1.68.38,4.63,4.63,0,0,0-3,3.85c0,.13,0,.26,0,.39a1.94,1.94,0,0,1,0,.24c0,.12,0,.23,0,.34a4.16,4.16,0,0,0,.47,1.85l.07.1a5.14,5.14,0,0,0,.48.8,3.67,3.67,0,0,0,2.64,1.62l.3.12a1.83,1.83,0,0,0,.87,0,1.91,1.91,0,0,0,.79-.12,5.77,5.77,0,0,0,1.38-.7l.27-.19.2-.17.15-.15c.07-.08.16-.14.23-.23a2.19,2.19,0,0,0,.3-.47h0C127.05,53.92,127.29,50.32,125.51,49.05Z"/><path class="cls-4" d="M69.89,64.54c2.91-.62,5.52-2.75,7.8-4.51,1.51-1.17,2.36-3.88,2.36-5.69a7.78,7.78,0,0,0-.11-1.06,14,14,0,0,0-5.59-12.19c-5.25-3.64-12.3-1.31-16.26,3.12a10.49,10.49,0,0,0-2.58,10,16.68,16.68,0,0,0,4.32,7.37A10.91,10.91,0,0,0,69.89,64.54Z"/><path class="cls-2" d="M68.46,57.44a4.35,4.35,0,0,0,2.73-1.15,2.88,2.88,0,0,0,.89-1.42,4.49,4.49,0,0,0-.58-4.69c-.07-.1-.16-.19-.24-.29a1.37,1.37,0,0,0-.16-.18,2.5,2.5,0,0,0-.23-.23,4,4,0,0,0-1.59-.94l-.12,0a6,6,0,0,0-.88-.22,3.55,3.55,0,0,0-2.92.71,2.36,2.36,0,0,0-.28.12,1.58,1.58,0,0,0-.63.57,1.68,1.68,0,0,0-.46.62,5.21,5.21,0,0,0-.47,1.43,1.67,1.67,0,0,0-.05.31,2.29,2.29,0,0,0,0,.25,1.47,1.47,0,0,0,0,.21c0,.11,0,.21,0,.32a1.87,1.87,0,0,0,.13.53h0C64.07,55.15,66.37,57.79,68.46,57.44Z"/><path class="cls-1" d="M72,65c-2.2-.86-11.25-5.21-15.17-4.81s4,6.58,4,6.58Z"/><path class="cls-1" d="M135.8,56.87c-2.26,1-12.17,4.65-14.74,7.9s7.9,1.8,7.9,1.8Z"/></g><g id="extras"><path class="cls-5" d="M53.77,70.78c-1.88-1.22-4.4-1.48-6.54-1.75A6,6,0,0,0,43,70.8a4.43,4.43,0,0,0-.51.62A10.44,10.44,0,0,0,39,80.86c.86,4.72,5.84,7.23,10.29,7a7.88,7.88,0,0,0,6.69-3.94,12.64,12.64,0,0,0,1.61-6.21A8.15,8.15,0,0,0,53.77,70.78Z"/><path class="cls-5" d="M150.26,70.25c-1.92-1.25-4.49-1.5-6.68-1.78a6.1,6.1,0,0,0-4.35,1.8,6.59,6.59,0,0,0-.52.64,10.66,10.66,0,0,0-3.57,9.63c.87,4.81,6,7.37,10.5,7.11a8,8,0,0,0,6.82-4,12.82,12.82,0,0,0,1.65-6.34A8.36,8.36,0,0,0,150.26,70.25Z"/></g><g id="eyelids"><path class="cls-1" d="M54,94.5c-3.08-2-7.2-2.41-10.72-2.86-2.33-.29-5.42,1.32-7,2.9a10.74,10.74,0,0,0-.82,1c-4.32,3.79-6.76,9.87-5.74,15.46,1.4,7.73,9.56,11.84,16.85,11.43a12.91,12.91,0,0,0,11-6.47,20.47,20.47,0,0,0,2.65-10.17A13.4,13.4,0,0,0,54,94.5Z"/><path class="cls-1" d="M160.32,94.5c-3.08-2-7.21-2.41-10.72-2.86-2.33-.29-5.42,1.32-7,2.9a8.31,8.31,0,0,0-.82,1A17.18,17.18,0,0,0,136,111c1.41,7.73,9.57,11.84,16.86,11.43a12.91,12.91,0,0,0,11-6.47,20.58,20.58,0,0,0,2.65-10.17A13.42,13.42,0,0,0,160.32,94.5Z"/></g></svg>