<svg xmlns="http://www.w3.org/2000/svg" viewBox="0 0 267.7 288.02"><defs><style>.cls-1{fill:#88c6b2;}.cls-2{fill:#313131;}.cls-3{fill:#fcffe3;}.cls-4{fill:#f2f2f2;}</style></defs><title>gangetabellen</title><g id="arms"><path class="cls-1" d="M182.31,175.85a3.15,3.15,0,0,1-.09-6.29c.42,0,42.64-1.65,72.87-29.34a3.15,3.15,0,0,1,4.25,4.65c-32,29.3-75.11,30.92-76.93,31Z"/><path class="cls-1" d="M73.6,172.35C62.75,172.35,29.93,170,9,143.2a3.15,3.15,0,0,1,5-3.87C36.69,168.43,76.31,166,76.71,166a3.15,3.15,0,0,1,.45,6.28C76.88,172.27,75.62,172.35,73.6,172.35Z"/></g><g id="legs"><path class="cls-1" d="M124,281.32a3.15,3.15,0,0,1-3.14-3.15V251.11a3.15,3.15,0,1,1,6.29,0v27.06A3.15,3.15,0,0,1,124,281.32Z"/><path class="cls-1" d="M141.22,281.32a3.15,3.15,0,0,1-3.14-3.15V248.59a3.15,3.15,0,1,1,6.29,0v29.58A3.15,3.15,0,0,1,141.22,281.32Z"/></g><g id="main"><path class="cls-1" d="M224.15,52.49c-5.81-44.34-47.26-66.17-66.35-19.08-3.64,9-5,17.17-16.48,19.65C99.56,62.09,105.85-2.11,65,14.68c-34.11,14-23.5,98.48-20.35,127.5C49.33,185.7,62,241.93,108.38,255,225.45,288.07,233.55,124.36,224.15,52.49Z"/><path class="cls-2" d="M176.62,125.69A4.68,4.68,0,0,0,172,121.1l-75.54.62a4.41,4.41,0,0,0-4.42,4.82c0,.12-.08.23-.1.36-5.31,29,7.84,76.33,43.05,79.34a37,37,0,0,0,35.94-20c4-8.09,4.71-17.1,5.29-26C177,148.72,177.48,137.22,176.62,125.69Z"/><path class="cls-3" d="M163.56,123.81A6.75,6.75,0,0,0,162,121.1l-17,.19a6.08,6.08,0,0,0-1.81,4.37v.11h0c0,2.28,0,4.56,0,6.84a14.76,14.76,0,0,0,.44,5c1.7,5,6.28,5.31,10.77,5.29a14.51,14.51,0,0,0,5.13-.59c2.83-1.1,4.07-3.78,4.3-6.64.12-1.48.14-3,.16-4.52C164,128.79,164.2,126,163.56,123.81Zm-8,10.56c0,.35,0,.5,0,0Z"/><path class="cls-3" d="M136.07,206.37a6,6,0,0,0,1.33-4.14s-.06-2.63,0-5.39c0-2-.24-4.88-.36-6.89-.15-2.28-1.1-4.9-3.13-5.51-1.56-.45-9.1-.28-12.06.57-1.6,1.09-2.19,3.53-2.4,7-.11,1.79-.15,1.82-.16,3.62a38,38,0,0,0,.15,5.82C121.39,203.09,129.83,206.12,136.07,206.37ZM127,190.28c0-.43,0-.6,0,0Z"/><path class="cls-3" d="M120.08,126.34c-.54-2.42-.85-4.64-2.77-5.2l-6.31.11-3.86-.15c-3.08,0-4.76,3.12-4.77,7.18v.14c0,2.75,0,5.51,0,8.27,0,2,.28,4,.4,6,.15,2.29,1.1,4.91,3.14,5.51,1.55.46,9.2-.37,11.68-2s2.63-3.38,2.84-6.83c.11-1.8.07-2.35.08-4.14A41.76,41.76,0,0,0,120.08,126.34Zm-7.31,12.77c0,.43,0,.6,0,0Z"/><path class="cls-4" d="M86.71,34.87a14.15,14.15,0,0,0-8.85-3.61,9.51,9.51,0,0,0-5.28,1.2c-5.07,1.44-8.55,6.62-9.39,12a10.24,10.24,0,0,0-.12,1.23c0,.26,0,.52-.06.77s0,.7,0,1.05a12.91,12.91,0,0,0,1.48,5.79,3.53,3.53,0,0,0,.21.32,17.59,17.59,0,0,0,1.51,2.51c2,2.69,4.87,4.87,8.29,5.08.32.12.59.27.92.38a5.32,5.32,0,0,0,2.74.11,5.67,5.67,0,0,0,2.47-.35A18.86,18.86,0,0,0,85,59.21c.28-.19.56-.39.83-.61l.62-.53c.16-.15.32-.31.47-.47s.5-.46.73-.72a5.71,5.71,0,0,0,.93-1.49l0,0C91.53,50.15,92.29,38.86,86.71,34.87Z"/><path class="cls-2" d="M81.44,42.84a7.52,7.52,0,0,0-7.15-2.22,3.79,3.79,0,0,0-2.79,3.12C70.33,46.46,70,50,73,51.68c2.5,1.37,6.3,1.37,8.48-.58C84.05,48.83,83.46,45.2,81.44,42.84Z"/><path class="cls-4" d="M189.77,58a14.18,14.18,0,0,0,8.81-3.7,9.64,9.64,0,0,0,2.89-4.59c2.56-4.6,1.36-10.72-1.88-15.16-.24-.34-.52-.64-.79-1s-.32-.39-.5-.58a10.31,10.31,0,0,0-.75-.73,12.86,12.86,0,0,0-5.14-3.05c-.13,0-.25-.05-.37-.08a17.71,17.71,0,0,0-2.85-.7c-3.29-.52-6.89,0-9.45,2.27-.31.14-.61.22-.92.38a5.37,5.37,0,0,0-2,1.85,5.79,5.79,0,0,0-1.49,2,18.83,18.83,0,0,0-1.53,4.62c-.07.34-.12.68-.16,1s-.05.54-.06.81,0,.45,0,.67,0,.68,0,1a6.09,6.09,0,0,0,.39,1.71s0,0,0,0C175.56,50.57,183,59.09,189.77,58Z"/><path class="cls-2" d="M187.87,48.6a7.5,7.5,0,0,0,6.62-3.49,3.8,3.8,0,0,0-.23-4.18c-1.1-2.75-3.42-5.48-6.71-4.52-2.73.8-5.42,3.48-5.58,6.4C181.78,46.21,184.77,48.37,187.87,48.6Z"/></g><g id="eyelids"><path class="cls-1" d="M87.54,80.12C84,77.81,79.2,77.33,75.13,76.81c-2.7-.34-6.27,1.53-8.1,3.36a10.27,10.27,0,0,0-1,1.18c-5,4.39-7.83,11.43-6.65,17.91C61.05,108.21,70.5,113,79,112.49c5.32-.3,10-2.72,12.69-7.49a23.8,23.8,0,0,0,3.07-11.78A15.55,15.55,0,0,0,87.54,80.12Z"/><path class="cls-1" d="M198.81,75.62c-3.56-2.31-8.34-2.8-12.41-3.31-2.7-.35-6.28,1.53-8.11,3.35a12.55,12.55,0,0,0-.95,1.18c-5,4.4-7.83,11.43-6.65,17.91,1.63,9,11.08,13.71,19.52,13.23,5.33-.3,10-2.71,12.69-7.48A23.84,23.84,0,0,0,206,88.72,15.54,15.54,0,0,0,198.81,75.62Z"/></g></svg>