<svg xmlns="http://www.w3.org/2000/svg" viewBox="0 0 205.77 269.36"><defs><style>.cls-1{fill:#ffb53c;}.cls-2{fill:#313131;}.cls-3{fill:#f2f2f2;}</style></defs><title>gangetabellen</title><g id="arms"><path class="cls-1" d="M162.06,131.54a3.47,3.47,0,0,1-2.72-5.6c.37-.46,36.53-47.37,33.85-104.82a3.46,3.46,0,0,1,6.91-.32c2.8,60.08-33.76,107.43-35.31,109.41A3.48,3.48,0,0,1,162.06,131.54Z"/><path class="cls-1" d="M49.9,120.38a3.5,3.5,0,0,1-1.73-.46C46.5,119,7.11,95.6,4.26,51.38a3.46,3.46,0,0,1,6.9-.45c2.62,40.58,40.1,62.78,40.48,63a3.46,3.46,0,0,1-1.74,6.45Z"/></g><g id="legs"><path class="cls-1" d="M93.4,259.38a3.46,3.46,0,0,1-3.46-3.46V220.64a3.46,3.46,0,1,1,6.92,0v35.28A3.46,3.46,0,0,1,93.4,259.38Z"/><path class="cls-1" d="M125.61,259.38a3.46,3.46,0,0,1-3.46-3.46V223.41a3.46,3.46,0,0,1,6.92,0v32.51A3.46,3.46,0,0,1,125.61,259.38Z"/></g><g id="main"><path class="cls-1" d="M186.67,141.55c-13.55-33.87-47-113.79-49.76-118.59-4.2-7.17-12.43-14-20.67-15.89-19.93-4.54-35.41,6.1-42.55,24.16-6,15.22-11.19,31.27-18.34,46,.37-.78,3.09-7.24.69-1.67q-.91,2.13-1.84,4.26-2,4.67-4,9.31c-3.65,8.4-7.27,16.82-10.73,25.3-12.85,31.47-19.27,68.75,1,97.68C51.34,227.62,68.51,232,86.8,232.28c17.76.25,30.61,1.31,46.27-1.14,20.2-3.15,40.09-11.63,51.14-29.7S194.28,160.57,186.67,141.55Z"/><path class="cls-2" d="M125.55,120.39c-.62-7.8-5.61-21-16.74-21.27a11.14,11.14,0,0,0-1.6.1c-9.65,1.3-11.66,16.33-11.65,24.91,0,7.49,3.16,19.22,14.5,19S126.22,129,125.55,120.39Z"/><path class="cls-3" d="M114.62,33.23c-2.45-1.59-5.73-1.92-8.53-2.27-1.85-.24-4.31,1-5.57,2.31a7.53,7.53,0,0,0-.65.8,13.64,13.64,0,0,0-4.57,12.3c1.12,6.16,7.61,9.42,13.41,9.09a10.23,10.23,0,0,0,8.72-5.14,16.39,16.39,0,0,0,2.11-8.09A10.7,10.7,0,0,0,114.62,33.23Z"/><path class="cls-2" d="M110.51,39.4a4.66,4.66,0,0,0-2.88-1.18,3.09,3.09,0,0,0-1.72.4,4.7,4.7,0,0,0-3.06,3.92,2.71,2.71,0,0,0,0,.4,2.29,2.29,0,0,0,0,.25v.34a4.27,4.27,0,0,0,.49,1.89l.06.11a6.79,6.79,0,0,0,.5.81,3.73,3.73,0,0,0,2.7,1.66,2.68,2.68,0,0,0,.3.12,1.69,1.69,0,0,0,.89,0,1.84,1.84,0,0,0,.81-.12,6.42,6.42,0,0,0,1.41-.71,2.69,2.69,0,0,0,.27-.2l.2-.17.16-.15.24-.24a2,2,0,0,0,.3-.48h0C112.08,44.38,112.33,40.7,110.51,39.4Z"/></g><g id="eyelids"><path class="cls-1" d="M116,60.27c-2.92-1.9-6.84-2.29-10.17-2.71-2.21-.29-5.14,1.25-6.63,2.75a8.42,8.42,0,0,0-.79,1A16.28,16.28,0,0,0,93,75.93c1.33,7.34,9.07,11.23,16,10.84a12.24,12.24,0,0,0,10.39-6.13A19.51,19.51,0,0,0,121.88,71,12.7,12.7,0,0,0,116,60.27Z"/></g></svg>